<svg width="361" height="566" viewBox="0 0 361 566" fill="none" xmlns="http://www.w3.org/2000/svg">
<path d="M122.301 51.2184C162.301 13.7184 175.301 40.2184 296.301 75.7184C308.801 250.718 326.301 593.219 296.301 563.219C258.801 525.719 245.801 499.219 219.301 483.719C192.801 468.219 172.801 547.719 135.301 547.719C97.8011 547.719 33.8011 494.719 7.30111 452.719C-19.1989 410.719 33.8011 327.219 49.3011 313.719C64.8011 300.219 47.3011 214.719 33.8011 190.219C20.3011 165.719 82.3011 88.7184 122.301 51.2184Z" fill="#8732C9"/>
<path d="M148.301 18.2184C188.301 -19.2816 201.301 7.21841 322.301 42.7184C334.801 217.718 352.301 560.219 322.301 530.219C284.801 492.719 271.801 466.219 245.301 450.719C218.801 435.219 198.801 514.719 161.301 514.719C123.801 514.719 59.8011 461.719 33.3011 419.719C6.80113 377.719 59.8011 294.219 75.3011 280.719C90.8011 267.219 73.3011 181.719 59.8011 157.219C46.3011 132.719 108.301 55.7184 148.301 18.2184Z" fill="#9D53D5"/>
<path d="M170.301 33.2184C210.301 -4.28159 223.301 22.2184 344.301 57.7184C356.801 232.718 374.301 575.219 344.301 545.219C306.801 507.719 293.801 481.219 267.301 465.719C240.801 450.219 220.801 529.719 183.301 529.719C145.801 529.719 81.8011 476.719 55.3011 434.719C28.8011 392.719 81.8011 309.219 97.3011 295.719C112.801 282.219 95.3011 196.719 81.8011 172.219C68.3011 147.719 130.301 70.7184 170.301 33.2184Z" fill="#B87EE4"/>
</svg>
